<svg  xmlns="http://www.w3.org/2000/svg" width="356" height="799" viewBox="0 0 356 799" fill="none">
        <path fill-rule="evenodd" clip-rule="evenodd" d="M99.3445 799H-0.369385C84.4982 532.509 170.329 266.331 255.698 0H355.276C354.856 1.33198 354.431 2.6675 353.999 4.00646C215.866 429.03 262.985 285.497 99.3445 799Z" fill="#F0145A"/>
</svg>
<svg  xmlns="http://www.w3.org/2000/svg" width="381" height="459" viewBox="0 0 381 459" fill="none">
    <path fill-rule="evenodd" clip-rule="evenodd" d="M44.1121 0H231.082C284.793 0 329.618 22.9124 357.49 61.6302C385.34 100.35 386.199 164.956 369.958 215.498L349.194 280.023C340.522 306.966 299.918 434.384 292 459H190C190 459 191.559 460.366 276.767 195.5C284.29 172.126 288.586 134.185 276.767 117.777C264.968 101.37 245.06 91.6601 218.718 91.6601H65.8856C35.8765 91.6601 9.28282 111.178 -0.000732422 140.005L44.1121 0Z" fill="url(#paint0_linear_22728_11330)"/>
    <defs>
    <linearGradient id="paint0_linear_22728_11330" x1="320.823" y1="458.999" x2="67.5029" y2="176.696" gradientUnits="userSpaceOnUse">
    <stop stop-color="#F0145A"/>
    <stop offset="1" stop-color="#693264"/>
    </linearGradient>
    </defs>
</svg>